<svg aria-hidden="true" style="position: absolute; width: 0; height: 0; overflow: hidden;" version="1.1"
    xmlns="http://www.w3.org/2000/svg" xmlns:xlink="http://www.w3.org/1999/xlink">
    <defs>
        <symbol id="plus-icon" viewBox="0 0 32 32" fill="currentColor">
            <path
                d="M31 12h-11v-11c0-0.552-0.448-1-1-1h-6c-0.552 0-1 0.448-1 1v11h-11c-0.552 0-1 0.448-1 1v6c0 0.552 0.448 1 1 1h11v11c0 0.552 0.448 1 1 1h6c0.552 0 1-0.448 1-1v-11h11c0.552 0 1-0.448 1-1v-6c0-0.552-0.448-1-1-1z">
            </path>
        </symbol>
        <symbol id="eye-icon" viewBox="0 0 48 32" fill="currentColor" fill-rule="evenodd">
            <path
                d="M23.989 0c-6.726 0-12.615 3.938-16.661 7.581-2.056 1.851-3.714 3.697-4.858 5.078-0.573 0.692-1.020 1.271-1.326 1.681-0.153 0.205-0.271 0.368-0.353 0.482-0.041 0.057-0.072 0.101-0.094 0.133l-0.026 0.037-0.008 0.011-0.663 1.028 0.671 0.977 0.026 0.037c0.022 0.032 0.054 0.076 0.094 0.133 0.081 0.114 0.2 0.277 0.353 0.482 0.306 0.41 0.753 0.989 1.326 1.681 1.144 1.381 2.802 3.227 4.858 5.078 4.046 3.643 9.935 7.581 16.661 7.581s12.615-3.938 16.661-7.581c2.056-1.851 3.714-3.697 4.858-5.078 0.573-0.692 1.020-1.271 1.326-1.681 0.153-0.205 0.271-0.368 0.352-0.482 0.041-0.057 0.072-0.101 0.094-0.133l0.026-0.037 0.008-0.011 0.004-0.005 0.681-0.992-0.719-1.045c-0.022-0.031-0.054-0.076-0.094-0.133-0.081-0.114-0.2-0.277-0.352-0.482-0.306-0.41-0.753-0.989-1.326-1.681-1.144-1.381-2.802-3.227-4.858-5.078-4.046-3.643-9.935-7.581-16.661-7.581zM5.297 17.104c-0.348-0.42-0.644-0.793-0.884-1.104 0.24-0.311 0.536-0.684 0.884-1.104 1.064-1.285 2.602-2.995 4.495-4.7 3.851-3.468 8.872-6.641 14.198-6.641s10.346 3.173 14.197 6.641c1.893 1.705 3.431 3.415 4.495 4.7 0.348 0.42 0.644 0.793 0.884 1.104-0.24 0.311-0.536 0.684-0.884 1.104-1.064 1.285-2.602 2.995-4.495 4.7-3.851 3.468-8.872 6.641-14.197 6.641s-10.347-3.173-14.198-6.641c-1.893-1.704-3.431-3.415-4.495-4.7zM29.444 16c0 2.945-2.442 5.333-5.455 5.333s-5.455-2.388-5.455-5.333 2.442-5.333 5.455-5.333c3.013 0 5.455 2.388 5.455 5.333zM33.081 16c0 4.909-4.071 8.889-9.092 8.889s-9.092-3.98-9.092-8.889c0-4.909 4.071-8.889 9.092-8.889s9.092 3.98 9.092 8.889z">
            </path>
        </symbol>
        <symbol id="download-icon" viewBox="0 0 32 32" fill="currentColor">
            <path
                d="M25.888 0.248c0.674 0.22 1.292 0.58 1.815 1.054l0 0c0.597 0.541 1.008 1.262 1.533 2.181 0.029 0.051 0.059 0.103 0.089 0.155l2.495 4.366c0.118 0.207 0.181 0.442 0.181 0.68v16.153c0 0.975 0 1.789-0.054 2.454-0.057 0.694-0.179 1.345-0.493 1.961-0.482 0.947-1.253 1.717-2.199 2.199-0.616 0.314-1.267 0.437-1.961 0.493-0.665 0.054-1.479 0.054-2.454 0.054h-17.677c-0.975 0-1.789 0-2.454-0.054-0.694-0.057-1.346-0.179-1.962-0.493-0.948-0.483-1.716-1.254-2.197-2.199-0.314-0.617-0.437-1.269-0.494-1.963-0.054-0.666-0.054-1.481-0.054-2.458v-16.147c0-0.239 0.062-0.473 0.181-0.68l2.496-4.369c0.031-0.054 0.062-0.108 0.092-0.161 0.521-0.914 0.931-1.633 1.527-2.173 0.525-0.476 1.145-0.835 1.817-1.054 0.765-0.25 1.593-0.249 2.647-0.248 0.061 0 0.123 0 0.186 0h14.106c0.063 0 0.125-0 0.186-0h0c1.054-0.001 1.884-0.001 2.649 0.248zM25.037 2.856c-0.296-0.097-0.654-0.113-1.984-0.113h-14.106c0 0-1.449 0-1.982 0.113s-0.827 0.479-0.827 0.479c-0.231 0.209-0.421 0.51-1.080 1.662l-1.324 2.317h24.531l-1.322-2.314c-0.659-1.153-0.851-1.455-1.082-1.665-0.239-0.217-0.52-0.38-0.825-0.479zM29.257 10.057h-26.514v14.72c0 1.047 0.001 1.749 0.045 2.29 0.043 0.525 0.119 0.776 0.204 0.941 0.22 0.431 0.57 0.781 0.998 1l0 0c0.165 0.084 0.416 0.161 0.94 0.203 0.54 0.044 1.242 0.045 2.286 0.045h17.565c1.045 0 1.746-0.001 2.286-0.045 0.524-0.043 0.774-0.119 0.939-0.203l0-0c0.43-0.219 0.781-0.57 1-1l0-0c0.084-0.165 0.161-0.416 0.203-0.94 0.044-0.54 0.045-1.241 0.045-2.286v-14.725z">
            </path>
            <path
                d="M17.371 14.171c0-0.757-0.614-1.371-1.371-1.371s-1.371 0.614-1.371 1.371v8.409l-3.353-2.236c-0.63-0.42-1.482-0.25-1.902 0.38s-0.25 1.482 0.38 1.902l5.486 3.657c0.461 0.307 1.061 0.307 1.521 0l5.486-3.657c0.63-0.42 0.801-1.272 0.38-1.902s-1.272-0.8-1.902-0.38l-3.353 2.236v-8.409z">
            </path>
        </symbol>
        <symbol id="bookmark-icon" viewBox="0 0 32 32" fill="currentColor">
            <path
                d="M9.684-0c-3.008 0-5.474 2.466-5.474 5.474v25.263c0 0.698 0.566 1.263 1.263 1.263 0.277 0 0.534-0.089 0.742-0.241l-0.004 0.003 9.788-7.048 9.788 7.048c0.205 0.149 0.461 0.238 0.738 0.238 0.698 0 1.263-0.565 1.263-1.263v-25.263c0-3.008-2.466-5.474-5.474-5.474h-12.632zM9.684 2.526h12.632c1.642 0 2.947 1.305 2.947 2.947v22.798l-8.525-6.138c-0.205-0.149-0.461-0.238-0.738-0.238s-0.534 0.089-0.742 0.241l0.004-0.003-8.525 6.138v-22.798c0-1.642 1.305-2.947 2.947-2.947z">
            </path>
        </symbol>
        <symbol id="branch-icon" viewBox="0 0 32 32" fill="currentColor">
            <path
                d="M30.54 5.095c0-0.002 0-0.004 0-0.006 0-2.811-2.278-5.089-5.089-5.089s-5.089 2.278-5.089 5.089c0 2.292 1.515 4.23 3.599 4.867l0.036 0.009v0.218c0 2.409-1.953 4.362-4.362 4.362v0h-5.816c-1.643 0.016-3.156 0.56-4.382 1.468l0.020-0.014v-6.034c2.12-0.647 3.635-2.585 3.635-4.877 0-2.811-2.278-5.089-5.089-5.089s-5.089 2.278-5.089 5.089c0 2.292 1.515 4.23 3.599 4.867l0.036 0.009v12.068c-2.12 0.647-3.635 2.585-3.635 4.877 0 2.811 2.278 5.089 5.089 5.089s5.089-2.278 5.089-5.089c0-2.292-1.515-4.23-3.599-4.867l-0.036-0.009v-0.218c0-2.409 1.953-4.362 4.362-4.362v0h5.816c4.015 0 7.27-3.255 7.27-7.27v0-0.218c2.118-0.646 3.632-2.581 3.635-4.871v-0zM5.822 5.095c0-1.205 0.976-2.181 2.181-2.181s2.181 0.976 2.181 2.181v0c0 1.205-0.976 2.181-2.181 2.181s-2.181-0.976-2.181-2.181v0zM10.184 26.905c0 1.205-0.976 2.181-2.181 2.181s-2.181-0.976-2.181-2.181c0-1.205 0.976-2.181 2.181-2.181v0c0.022-0.001 0.048-0.001 0.074-0.001 1.164 0 2.108 0.944 2.108 2.108 0 0.026-0 0.052-0.001 0.078l0-0.004zM25.451 7.276c-0.022 0.001-0.048 0.001-0.074 0.001-1.164 0-2.108-0.944-2.108-2.108 0-0.026 0-0.052 0.001-0.078l-0 0.004c0-1.205 0.976-2.181 2.181-2.181s2.181 0.976 2.181 2.181v0c0.001 0.022 0.001 0.048 0.001 0.074 0 1.164-0.944 2.108-2.108 2.108-0.026 0-0.052-0-0.078-0.001l0.004 0z">
            </path>
        </symbol>
    </defs>
</svg>